<svg width="590" height="230" viewBox="0 0 590 230" fill="none" xmlns="http://www.w3.org/2000/svg">
<g clip-path="url(#clip0)">
<path d="M534.895 161.293L587.666 212.996C593.91 219.114 584.202 228.4 578.073 222.395L525.301 170.692C519.167 164.682 528.63 155.154 534.895 161.293Z" fill="#66757F"/>
<path d="M376.575 43.7864C371.283 38.5947 371.283 30.1725 376.575 24.9809L386.168 15.5814C391.467 10.3898 400.063 10.3898 405.362 15.5814L438.94 48.4861C444.238 53.6777 444.238 62.0933 438.94 67.2849L429.346 76.691C424.047 81.8826 415.458 81.8826 410.159 76.691L376.575 43.7864Z" fill="#CCD6DD"/>
<path d="M513.306 177.745C509.33 173.849 509.337 167.534 513.306 163.646L527.696 149.547C531.672 145.651 538.118 145.651 542.093 149.547C546.069 153.435 546.069 159.75 542.093 163.646L527.696 177.745C523.727 181.64 517.282 181.64 513.306 177.745Z" fill="#99AAB5"/>
<path d="M410.166 95.4832C404.867 90.2916 404.867 81.876 410.166 76.6844L438.946 48.4794C444.245 43.2878 452.841 43.2878 458.14 48.4794L539.692 128.388C544.991 133.579 544.991 142.002 539.692 147.187L510.904 175.392C505.606 180.583 497.016 180.583 491.711 175.392L410.166 95.4832Z" fill="#E1E8ED"/>
<path d="M438.946 123.688C433.654 118.496 438.451 114.781 443.743 109.589L472.53 81.3841C477.829 76.1924 481.622 71.4927 486.921 76.6843L539.692 128.388C544.991 133.579 544.991 142.002 539.692 147.187L510.904 175.392C505.606 180.583 497.016 180.583 491.711 175.392L438.946 123.688Z" fill="#38B6FF"/>
<path d="M393.374 83.7372L446.138 32.0337C455.331 23.0263 469.906 36.9587 460.535 46.1395L407.764 97.843C398.566 106.839 384.001 92.9045 393.374 83.7372ZM364.586 36.7268L398.17 3.82218C407.363 -5.1847 421.928 8.75018 412.561 17.928L378.977 50.8326C369.789 59.8496 355.22 45.9041 364.586 36.7268Z" fill="#99AAB5"/>
</g>
<g clip-path="url(#clip1)">
<path d="M410.7 115C410.7 178.512 359.212 230 295.7 230C232.194 230 180.7 178.512 180.7 115C180.7 51.4944 232.194 0 295.7 0C359.212 0 410.7 51.4944 410.7 115Z" fill="#CFCFCF"/>
<path d="M295.7 210.833C313.342 210.833 327.644 193.671 327.644 172.5C327.644 151.329 313.342 134.167 295.7 134.167C278.058 134.167 263.756 151.329 263.756 172.5C263.756 193.671 278.058 210.833 295.7 210.833Z" fill="#484951"/>
<path d="M213.922 60.0556C234.763 32.2639 262.58 31.9444 263.756 31.9444C271.979 31.9444 272.006 44.6924 263.781 44.7222C262.791 44.735 240.986 45.2717 224.145 67.7222C219.25 74.2645 208.894 66.7698 213.922 60.0556ZM367.256 67.7222C350.389 45.2269 328.533 44.735 327.606 44.7222C319.419 44.6329 319.447 31.9444 327.645 31.9444C328.82 31.9444 356.631 32.2639 377.478 60.0556C382.517 66.764 372.166 74.2526 367.256 67.7222ZM269.595 99.0278L281.05 87.5725C286.877 81.7458 277.843 72.712 272.016 78.5386L260.561 89.9939L249.106 78.5386C243.279 72.712 234.245 81.7458 240.072 87.5725L251.527 99.0278L240.072 110.483C234.118 116.437 243.383 125.239 249.106 119.517L260.561 108.062L272.016 119.517C277.58 125.08 286.965 116.398 281.05 110.483L269.595 99.0278ZM339.873 99.0278L351.328 87.5725C357.155 81.7458 348.121 72.712 342.294 78.5386L330.839 89.9939L319.384 78.5386C313.557 72.712 304.523 81.7458 310.35 87.5725L321.805 99.0278L310.35 110.483C304.435 116.398 313.82 125.08 319.384 119.517L330.839 108.062L342.294 119.517C348.017 125.239 357.282 116.437 351.328 110.483L339.873 99.0278Z" fill="#484951"/>
</g>
<path d="M230 115C230 178.512 178.512 230 115 230C51.4944 230 0 178.512 0 115C0 51.4944 51.4944 0 115 0C178.512 0 230 51.4944 230 115Z" fill="#FFBE72"/>
<path d="M41.1764 84.1289C42.0261 83.5667 62.2661 70.2778 89.4444 70.2778C97.6835 70.2778 97.6835 83.0555 89.4444 83.0555C66.093 83.0555 48.4405 94.645 48.268 94.76C41.6042 99.2025 34.1429 88.8179 41.1764 84.1289ZM181.745 94.7664C181.566 94.6514 163.734 83.0555 140.556 83.0555C132.315 83.0555 132.315 70.2778 140.556 70.2778C167.734 70.2778 187.974 83.5667 188.824 84.1289C195.858 88.8081 188.409 99.196 181.745 94.7664Z" fill="#664500"/>
<path d="M172.5 141.137L230 115C230 110.783 229.738 106.637 229.304 102.542L172.5 128.359V121.389C172.5 114.336 166.776 108.611 159.722 108.611H70.2778C63.2244 108.611 57.5 114.336 57.5 121.389V128.359L0.702778 102.542C0.261944 106.637 0 110.783 0 115L57.5 141.137V170.181L9.88361 161.524C12.0622 166.443 14.6178 171.152 17.4417 175.675L57.5 182.959V191.667C57.5 198.72 63.2244 204.444 70.2778 204.444H159.722C166.776 204.444 172.5 198.72 172.5 191.667V182.959L212.565 175.669C215.382 171.146 217.938 166.437 220.116 161.518L172.5 170.181V141.137Z" fill="#F5F8FA"/>
<defs>
<clipPath id="clip0">
<rect width="230" height="230" fill="white" transform="translate(590) rotate(90)"/>
</clipPath>
<clipPath id="clip1">
<rect width="230" height="230" fill="white" transform="translate(180.7)"/>
</clipPath>
</defs>
</svg>
