<svg width="40" height="41" viewBox="0 0 40 41" fill="none" xmlns="http://www.w3.org/2000/svg">
<path d="M20.9577 18.4781C19.5209 19.0931 17.8904 19.7905 15.7772 19.7905C14.8932 19.7888 14.0134 19.6675 13.1619 19.43L14.6235 34.4357C14.7294 35.7192 15.8348 36.7365 17.1225 36.7365C19.046 36.8364 20.9381 36.8293 22.8621 36.7365C24.1495 36.7365 25.2548 35.7187 25.3606 34.4357L26.926 17.8538C26.2264 17.6149 25.5204 17.4562 24.7246 17.4562C23.348 17.4556 22.239 17.9297 20.9577 18.4781Z" fill="#FFDD00"/>
<path d="M33.6847 10.6911C33.4269 9.39091 33.2405 7.79223 31.7964 7.28375C31 7 30.5 7 30.4619 5.92876C30.2695 4.80292 30.241 3.42828 29.7241 2.39437C29.4012 1.72818 28.7313 1.33857 28.065 1.08081C26.1095 0.350816 23.961 0.176406 21.8949 0.0653783C19.8397 -0.0480303 17.779 -0.0138619 15.7286 0.167621C14.2025 0.306456 12.5951 0.474352 11.1449 1.00225C10.6149 1.19543 10.0686 1.42736 9.66561 1.83688C9.17106 2.34002 9.00963 3.11814 9.37069 3.74558C9.94489 4.74224 11.3533 5 12.395 5.32338C14.1869 5.71944 16.0429 5.87493 17.8736 5.94114C20.4012 6.04313 22.9481 5.93095 25.4498 5.54508C26.0358 5.4552 26.4119 4.68891 26.2392 4.15509C26.0326 3.5169 25.4772 3.26937 24.8493 3.36569C24.0863 3.48528 23.3172 3.5557 22.5455 3.60838C20.5845 3.74492 18.614 3.74831 16.6531 3.61914C15.4545 3.5406 14.262 3.41479 13.0891 3.16657C12.9053 3.12575 12.9053 2.8533 13.0891 2.81249H13.0967C13.775 2.66797 14.4619 2.5693 15.1523 2.48746C17.9689 2.19449 20.814 2.17457 23.6315 2.46109C24.6594 2.56725 27.2527 2.58331 27.7158 3.72407C28.1091 4.68885 28.2204 5.92821 28.4326 6.91512C28.5623 7.5227 27.3858 7.4802 27.0238 7.52106C21.8794 8.1074 16.601 8.07331 11.4791 7.29936C10.3296 7.12695 9.08101 6.70218 7.98719 7.29936C6.88238 7.90394 6.64501 8.99711 6.41588 10.1353C6.3018 10.7019 6.12422 11.3116 6.19148 11.8933C6.33624 13.1487 7.21391 14.169 8.47635 14.3972C14.3187 15.456 20.319 15.6912 26.2285 15.1409C26.6127 15.105 26.9963 15.0659 27.3795 15.0236C27.8817 14.9684 28.3222 15.4055 28.2706 15.9082C27.5946 22.4792 27.4 29.1427 26.2473 35.6428C26.0428 36.704 25.3244 37.3557 24.2761 37.5941C22.2237 38.0613 20.1593 37.8883 18.0748 37.8996C16.9092 37.9062 15.4816 37.7986 14.5819 36.931C13.7914 36.1692 13.6821 34.9761 13.5745 33.9443C12.9847 28.3303 12.3737 22.7174 11.8197 17.0996C11.7583 16.5136 11.3435 15.94 10.6896 15.9696C10.13 15.9943 9.49394 16.47 9.55959 17.0996C10.2133 23.3755 10.8297 29.6556 11.521 35.9274C11.767 38.1683 13.4782 39.3758 15.5973 39.7157C18.3093 40.1522 21.4795 40.2697 24.1787 39.7723C26.5255 39.3417 28.2862 37.7748 28.5375 35.3442C29.1052 29.7932 29.676 24.2382 30.2455 18.6849L30.6023 15.2076C30.6378 14.8627 30.9119 14.5635 31.2523 14.4978C31.9234 14.367 32.5648 14.1437 33.0422 13.633C33.802 12.82 33.9532 11.7598 33.6847 10.6911ZM30.2579 12.3668C26.2327 12.9642 22.149 13.2666 18.0797 13.1331C15.1673 13.0336 12.2857 12.7101 9.40247 12.3028C9.11994 12.263 8.81375 12.2113 8.61949 12.0031C8.25356 11.6102 8.4333 10.8192 8.52854 10.3446C8.61572 9.90977 8.78254 9.33023 9.29967 9.26834C10.1069 9.17364 11.0442 9.51425 11.8428 9.63534C12.8043 9.78205 13.7693 9.89955 14.7379 9.9878C19.6253 10.4332 24.6024 10.2689 29.433 9.40341C30.0965 9.28447 30.8321 9.06117 31.233 9.74833C31.508 10.2165 31.5445 10.8429 31.502 11.3719C31.4651 12.0223 30.8176 12.2837 30.2579 12.3668Z" fill="#777777"/>
</svg>
