<svg width="400" height="400" viewBox="0 0 400 400" fill="none" xmlns="http://www.w3.org/2000/svg">
<path fill-rule="evenodd" clip-rule="evenodd" d="M62 354.011C62 356.511 84 371.511 90 375.511C93 375.511 341 374.5 343 374.5C343 372.489 343 41.5 343 40.5111C342 36.4111 324.5 23 323 23C321 23 62 351.511 62 354.011Z" fill="#CECECE"/>
<path fill-rule="evenodd" clip-rule="evenodd" d="M342.282 367C342.282 371.837 339.856 373.2 335 373.2C263.101 373.2 191.199 373.669 119.3 373.8V377.2C192.866 377.135 266.434 377 340 377C345 377 347.282 374.5 347.282 370C347.282 262.668 347.282 155.332 347.282 48C347.282 47.4418 347.098 46.4903 347 46C346.5 43.5 342.316 37.3675 342 38C341.5 39 342 40.5 342 42C342 150.333 342.282 258.667 342.282 367ZM52.0817 350.5C47.5 354 82.4235 376.1 88.5817 376.5C88.6485 375.165 88.5817 373.837 88.5817 372.5C81 370.5 70.9148 359.833 64.5817 353.5C64.5817 352 53 350.5 52.0817 350.5Z" fill="#132349"/>
<path fill-rule="evenodd" clip-rule="evenodd" d="M51 23.5C51 28.5 51 184.089 51 184.089C51 294.363 51.4 350.12 51.4 350.5C51.4 351.788 52.3 352.732 53.4 353.116C54.5 353.5 54.5 353.579 58.919 353.579C66.5 353.5 73.7053 353.5 81.1 353.5L81.102 184.4L81.2 15.5C74.1331 15.5138 67.0668 15.5 60 15.5C55 15.5 51 18.5 51 23.5Z" fill="#274C76"/>
<rect x="89" y="255" width="216" height="61" fill="#274C76"/>
<rect x="91.9999" y="53" width="219" height="202" fill="#DDF2FF"/>
<path fill-rule="evenodd" clip-rule="evenodd" d="M81 15.57C80.9985 128.199 81.001 240.827 81.001 353.456V353.456C81.0004 353.48 81.0198 353.5 81.044 353.5L314.845 353.47C317.723 353.47 320.788 353.286 322.57 351.026V351.026C323.724 349.564 323.8 347.71 323.8 345.848C323.8 315.191 323.796 23.9192 323.796 22.4C323.796 18.7631 320.5 15.5 317 15.5H94.7C93.0938 15.5 81.6511 15.5 81.1 15.5C81 15.5 81 15.4829 81 15.57ZM206.165 60.095C207.017 60.658 208.937 62.593 210.434 64.395C213.4 67.967 225.555 79.966 227.556 81.298C231.38 83.843 240.33 89.1792 244.465 90.087C251.486 91.634 258.574 95.449 260.969 98.968C262.929 101.85 264.751 102.422 271.66 102.325C278.984 102.223 284.087 103.036 285.9 104.593C287.288 105.785 286.579 109.187 284.218 112.67C280.84 117.654 280.784 124.663 278.318 130.169C276.947 133.229 275.351 134.844 272.699 135.852C265.642 138.536 264.343 139.849 261.4 147.27C259.817 151.261 256.433 156.42 254.183 158.27C251.192 160.73 249.442 166.728 251.162 168.628C252.215 169.791 252.781 169.709 256.845 167.801C264.698 164.114 271.89 166.747 268.582 172.099C267.58 173.72 267.697 175.34 269.237 181.217C270.102 184.519 269.524 186.137 266.863 187.858C265.383 188.815 265.338 188.91 265.625 190.461C265.788 191.346 265.969 193.24 266.026 194.67C266.168 198.248 266.678 200.543 268.472 205.67C271.35 213.897 272.638 215.358 276.196 214.435C280.701 213.266 283.4 216.216 283.4 222.308C283.4 227.254 280.563 229.47 274.231 229.47C272.759 229.47 271.288 230.241 267.747 232.868C264.367 235.374 259.395 236.96 255.25 237.334C251.031 237.715 246.636 235.982 241.765 232.017C232.169 224.206 219.004 224.849 210.747 233.532C205.475 239.077 203.977 242.787 205.801 245.78C207.623 248.768 205.561 250.27 199.635 250.27C195.201 250.27 194.338 249.727 192.45 245.748C190.203 241.013 188.005 240.191 183.197 242.286C179.86 243.739 178.739 243.577 172.6 240.752C164.225 236.897 165.267 236.984 157.753 239.511C152.684 241.215 152.44 241.165 147.105 237.344C144.135 235.217 139.555 232.938 135.209 231.424C129.742 229.521 129.209 225.991 133.766 221.876C137.69 218.333 138.848 216.082 141.386 207.07C142.532 203.005 143.498 198.908 144.568 194.824C145.376 191.744 145.124 189.022 143.845 187.006C142.125 184.293 142.018 182.27 143.596 182.27C144.307 182.27 145.225 183.053 146.233 184.518C149.139 188.741 153.334 185.234 150.514 180.94C147.467 176.301 145.066 169.682 144.01 163.011C143.691 160.995 142.449 159.568 140.573 159.063C135.576 157.717 131.6 150.571 134.2 147.609C136.94 144.488 135.151 141.131 129.858 139.463C126.817 138.505 126.547 137.437 128.75 135.082C131.787 131.836 131.28 130.798 126.2 129.862C120.082 128.733 115.013 126.28 113.396 123.664C111.793 121.068 108.45 121.78 105.996 120.626C104.251 119.806 103.309 119.778 100.6 120.467C99.704 120.695 99.548 120.553 99.1 119.102C98.051 115.705 98.741 113.918 100.898 114.445C104.185 115.247 104.343 114.499 101.699 110.636C100.399 108.736 99.651 108.03 98.668 107.776C97.096 107.368 96.708 106.562 97.433 105.209C98.357 103.482 99.759 103.018 101.403 103.893C103.171 104.834 106.986 104.896 110.8 104.046C120.922 101.789 123.722 102.481 125.813 107.756C127.397 111.751 127.126 111.693 133.849 109.47C140.191 107.372 141.796 107.435 143.996 109.866C146 112.08 147.4 111.683 147.4 108.901C147.4 105.749 142.583 99.0201 145.2 96.745C146.564 95.559 146.478 95.185 144.4 93.25C142.12 91.126 141.893 89.228 143.762 87.897C146.257 86.121 147.465 86.94 148.143 90.87C148.526 93.09 150.601 93.878 154.139 93.147C156.785 92.6 158.491 93.09 161.919 95.381C168.344 99.675 171.734 97.696 169.993 90.67C169.333 88.007 172.701 85.616 179 84.277C184.99 82.9999 187.992 80.9363 193 77.47C195.332 75.854 195.374 75.72 195.387 69.789C195.395 66.478 195.588 63.865 195.875 63.189C197.445 59.4991 202.899 57.933 206.165 60.095ZM128.4 278.465C131.762 279.607 131.8 279.776 129.545 283.55C129.453 283.704 128.708 283.434 127.889 282.95C124.166 280.75 117.56 282.233 115.2 285.798C108.741 295.559 117.304 307.484 127.603 303.069C129.793 302.13 130.038 302.22 130.573 304.158C130.972 305.601 131.204 305.716 129.2 306.87C125.5 309 116.865 307.974 112.795 304.223C100.795 293.161 112.89 273.196 128.4 278.465ZM153.217 278.017C167.053 281.701 168.588 300.495 155.871 306.978C149.073 310.088 139.471 306.884 136.439 300.495C130.554 288.094 140.587 274.653 153.217 278.017ZM265.749 307.615C265.749 307.712 265.671 307.79 265.574 307.79V307.79H261.39V307.79C261.297 307.79 261.221 307.718 261.22 307.625C261.17 297.976 261 279.21 261 278.5C261 277.786 265.5 277.786 265.5 278.5C265.5 288.205 265.779 297.91 265.749 307.615ZM287.04 277.903C296 281 296.5 288.5 288.698 302.07C287.749 303.696 286.7 305.892 285.764 307.446C285.603 307.712 285.312 307.87 285 307.87V307.87H283.063C280.267 307.87 280.004 307.677 280.949 306.315C281.94 304.888 286.2 297.14 286.2 296.8C286.2 296.649 285 296.67 283.449 296.67C278.5 296.5 276.081 294.5 274.3 289.997C272.081 283 279.5 275.5 287.04 277.903ZM177.176 292.47C179.705 298.617 179.719 298.629 180.993 295.77C182.959 291.362 184.793 286.893 186.801 282.505C187.351 281.302 187.977 279.857 188.191 279.294C188.651 278.084 188.773 278.27 190.99 278.27C194.298 278.27 194 278 192.446 281.196C190.121 286.258 187.78 291.312 185.448 296.37C180.122 307.928 180.15 307.87 179.834 307.87C179.574 307.87 177.801 304.287 175.009 298.121C172.521 292.63 169.962 287.17 167.4 281.713C165.791 278.285 165.796 278.27 168.588 278.27H170.05C170.441 278.27 170.814 278.437 171.074 278.729V278.729C171.158 278.823 171.228 278.927 171.283 279.04C173.413 283.414 175.325 287.973 177.176 292.47ZM201.558 307.353C201.557 307.661 201.308 307.91 201 307.91V307.91H197.039V307.91C197.018 307.91 197 307.892 197 307.871V278.539C197 278.435 197.085 278.35 197.19 278.35V278.35H201.4V278.35C201.51 278.35 201.6 278.44 201.6 278.55L201.558 307.353ZM221.554 278.715C228.82 280.678 232.469 286.767 231.414 295.169C230.298 304.054 222.97 307.968 211.7 307.67H208.854V307.67C208.603 307.67 208.399 307.467 208.397 307.216L208.295 293.472C208.237 285.663 208.276 279.048 208.382 278.772C208.632 278.121 219.185 278.075 221.554 278.715ZM281.496 282.268C278.016 284.39 277.548 289.155 280.563 291.77C281.5 292.5 282.545 292.885 284.8 292.738C291.703 292.29 291.126 281.473 284.2 281.473C283.43 281.473 282.213 281.831 281.496 282.268ZM146.154 282.395C135.409 286.431 138.225 303.959 149.619 303.959C162.76 303.959 163.511 282.869 150.4 282.031C148.601 281.916 147.083 282.047 146.154 282.395ZM213 303.839C213 303.856 213.014 303.87 213.031 303.87V303.87H215.785C223.5 303 226.5 300 226.8 292.667C226.818 285.491 223.411 282.27 216.054 282.27H213.191V282.27C213.085 282.27 213 282.355 213 282.461V303.839ZM251.322 296.224V299.134V299.134C251.322 299.43 251.082 299.67 250.786 299.67H238.128V299.67C237.99 299.67 237.878 299.558 237.878 299.42V296.194C237.878 296.015 238.023 295.87 238.202 295.87V295.87H250.968C251.163 295.87 251.322 296.029 251.322 296.224V296.224Z" fill="#38B6FF"/>
<path fill-rule="evenodd" clip-rule="evenodd" d="M88.5 360C88.5 361 88.5 382 88.5 393.5C93.7117 391.985 100 390 104 388.5C109 390 114.394 391.933 119.5 393.603C119.5 385.813 119.5 361 119.5 360C119 360 89 360 88.5 360Z" fill="#D12D55"/>
</svg>
