<svg width="172" height="340" viewBox="0 0 172 340" fill="none" xmlns="http://www.w3.org/2000/svg">
<path fill-rule="evenodd" clip-rule="evenodd" d="M36.2802 315.167C45.881 313.908 49.4595 320.289 47.0156 334.561C38.5495 334.729 33.9237 333.722 33.0509 331.539C34.0983 325.158 35.1456 319.701 36.2802 315.167Z" fill="#131F5F"/>
<path fill-rule="evenodd" clip-rule="evenodd" d="M58.9731 321.632C69.9703 211.311 56.3547 161.608 18.1262 172.523C14.7223 204.93 18.9117 253.122 30.8691 317.014C33.051 319.533 42.4772 321.044 58.9731 321.632Z" fill="#131F5F"/>
<path fill-rule="evenodd" clip-rule="evenodd" d="M18.6499 172.355C18.4753 172.439 18.3008 172.439 18.1262 172.523C14.7223 204.93 18.9117 253.122 30.8691 317.014C32.0037 318.274 34.7966 319.281 39.3352 320.037C30.6945 281.416 25.9814 233.14 25.2832 175.293C23.0139 173.782 20.7446 172.858 18.6499 172.355Z" fill="#FFCC99" fill-opacity="0.2"/>
<path fill-rule="evenodd" clip-rule="evenodd" d="M20.7444 60.6903C29.996 91.251 34.7091 106.531 34.7091 106.531C54.6962 106.028 66.828 91.8387 71.0175 63.8807C60.3693 55.233 47.8011 51.4549 33.5745 52.5463C25.0211 58.0036 20.7444 60.6903 20.7444 60.6903Z" fill="#DADADA"/>
<path fill-rule="evenodd" clip-rule="evenodd" d="M146.689 63.2931C144.245 67.4071 140.492 69.4221 135.517 69.4221C140.666 60.1867 144.594 55.4011 147.3 54.8134C148.347 55.9048 148.173 58.6754 146.689 63.2931Z" fill="#FFE6D3"/>
<path fill-rule="evenodd" clip-rule="evenodd" d="M146.689 63.2931C144.245 67.4071 140.492 69.4221 135.517 69.4221C140.666 60.1867 144.594 55.4011 147.3 54.8134C148.347 55.9048 148.173 58.6754 146.689 63.2931Z" fill="#15193B" fill-opacity="0.2"/>
<path fill-rule="evenodd" clip-rule="evenodd" d="M133.946 71.2692C136.128 75.635 138.834 77.65 142.237 77.3142C151.227 71.3532 159.5 62.8472 160.5 60.3472C162 48.8472 153.5 53.1471 151.5 54.3472C149 55.8472 143.198 59.683 133.946 71.2692Z" fill="#FFE6D3"/>
<path fill-rule="evenodd" clip-rule="evenodd" d="M140.317 86.2976C134.208 82.9393 130.629 78.2376 129.495 72.1927C131.677 70.4295 133.16 69.2541 134.033 68.7504C138.135 70.4295 141.627 73.3681 144.594 77.398C144.507 78.2376 143.023 81.1762 140.317 86.2976Z" fill="white"/>
<path fill-rule="evenodd" clip-rule="evenodd" d="M91.7028 104.852C115.792 107.203 127.924 108.379 127.924 108.379C139.357 93.0982 144.943 83.9468 144.769 81.0922C141.278 76.8103 133.946 71.353 129.582 70.4295C126.702 70.9333 114.046 82.4355 91.7028 104.852Z" fill="#131F5F"/>
<path fill-rule="evenodd" clip-rule="evenodd" d="M13.5876 114.843C46.5793 120.636 59.3221 144.313 45.0955 183.605C30.3453 184.445 6.60522 179.491 5.99426 175.461C5.99426 175.377 8.52537 155.227 13.5876 114.843Z" fill="#131F5F"/>
<path fill-rule="evenodd" clip-rule="evenodd" d="M13.5876 114.843C18.0389 115.599 22.141 116.774 25.8067 118.202C25.5449 119.797 25.3703 121.476 25.1085 123.155C20.0463 155.647 18.4753 168.912 22.6647 181.758C13.6749 180.079 6.2561 177.56 5.99426 175.377C5.99426 175.377 8.52537 155.227 13.5876 114.843Z" fill="#CC6699" fill-opacity="0.2"/>
<path fill-rule="evenodd" clip-rule="evenodd" d="M99.9943 110.394C69.1845 141.878 42.0406 142.969 18.4751 113.752C24.6719 102.082 23.2754 84.3665 14.1984 60.6064C21.0935 58.0037 26.3302 55.6529 29.9087 53.386C30.2578 67.8268 35.4073 84.3665 46.5791 104.265C58.4491 88.3125 63.2495 72.6124 61.0675 57.0801C60.1947 56.4924 59.7583 56.1566 59.7583 56.1566C64.2969 57.9197 68.4863 59.263 72.152 60.2705C80.0072 63.7128 89.3461 80.4205 99.9943 110.394Z" fill="#131F5F"/>
<path fill-rule="evenodd" clip-rule="evenodd" d="M67.8753 31.6409C47.5392 36.8463 37.4147 39.449 37.4147 39.449C28.9486 34.2436 27.2681 20.7591 30.4144 17.104C30.4144 -1.53349 67.1825 -7.33786 68.1706 11.8822C72.8901 16.0595 69.0103 24.4448 67.8753 31.6409Z" fill="#131F5F"/>
<path fill-rule="evenodd" clip-rule="evenodd" d="M76.4287 107.539C72.0647 109.218 69.8827 109.974 69.8827 109.974C70.7555 98.0518 70.6682 86.1297 69.7081 74.2916C72.6756 85.7939 74.9449 96.7924 76.4287 107.539Z" fill="#CC6699" fill-opacity="0.2"/>
<path fill-rule="evenodd" clip-rule="evenodd" d="M46.6666 104.349C55.3946 109.638 64.3844 108.547 73.7233 101.158C67.3519 96.1207 58.3621 97.2122 46.6666 104.349Z" fill="#FFE6D3"/>
<path fill-rule="evenodd" clip-rule="evenodd" d="M39.4222 198.801L46.3173 195.443L94.4956 173.95L80.269 128.78L33.6617 150.358L30.3451 183.185L39.4222 198.801Z" fill="#FFDBB8"/>
<path fill-rule="evenodd" clip-rule="evenodd" d="M39.4222 198.801L46.3173 195.443L94.4956 173.95L80.269 128.78L33.6617 150.358L30.3451 183.185L39.4222 198.801Z" fill="#D97856" fill-opacity="0.502"/>
<path fill-rule="evenodd" clip-rule="evenodd" d="M123.56 148.595L62.3767 157.578L73.8976 175.629L112.65 186.46L160.479 175.629L172 157.578L123.56 148.595Z" fill="#FFDBB8"/>
<path fill-rule="evenodd" clip-rule="evenodd" d="M123.56 148.595L62.3767 157.578L73.8976 175.629L112.65 186.46L160.479 175.629L172 157.578L123.56 148.595Z" fill="#D97856" fill-opacity="0.2"/>
<path fill-rule="evenodd" clip-rule="evenodd" d="M39.4222 198.801L73.8977 175.629L97.5505 196.031V339.347H39.4222V198.801Z" fill="#FFDBB8"/>
<path fill-rule="evenodd" clip-rule="evenodd" d="M39.4222 198.801L73.8977 175.629L97.5505 196.031V339.347H39.4222V198.801Z" fill="#D97856" fill-opacity="0.749"/>
<path fill-rule="evenodd" clip-rule="evenodd" d="M73.8976 175.629H160.479V339.347H73.8976V175.629Z" fill="#FFDBB8"/>
<path fill-rule="evenodd" clip-rule="evenodd" d="M32.9634 53.722C34.0107 58.5076 38.5493 63.3771 47.5391 69.674C51.9903 65.644 54.5215 62.0338 56.1798 56.4086C55.0451 52.7984 54.6087 49.5241 54.8706 46.5855C49.8956 39.2812 43.1751 34.0758 34.709 30.8854C37.3274 39.7849 36.8037 47.3412 32.9634 53.722Z" fill="#FFE6D3"/>
<path fill-rule="evenodd" clip-rule="evenodd" d="M55.2197 53.0503C54.7833 50.7834 54.6087 48.6005 54.696 46.5855C49.7211 39.2812 43.0005 34.0758 34.5344 30.8854C35.7563 34.8314 36.28 38.6095 36.1927 42.0518C38.462 50.6995 48.2373 56.3247 55.2197 53.0503Z" fill="#15193B" fill-opacity="0.2"/>
<path fill-rule="evenodd" clip-rule="evenodd" d="M55.7437 99.7309C50.856 108.798 45.5319 108.462 39.6842 98.7234C39.6842 98.7234 41.9535 90.1596 46.5793 73.0322C45.4447 70.2616 44.7464 68.0787 44.6591 66.3156C46.9284 66.3995 48.9358 66.3995 50.6814 66.3156C51.2051 67.0712 51.1178 69.5899 50.245 73.1162C54.0853 91.1671 55.7437 99.7309 55.7437 99.7309Z" fill="#5965B1"/>
<path fill-rule="evenodd" clip-rule="evenodd" d="M39.422 27.359C39.9457 32.3126 40.2076 34.8313 40.2076 34.8313C35.0581 33.8238 32.0033 31.0532 30.9559 28.2826C27.9011 20.3905 36.9782 18.5435 39.422 27.359Z" fill="#FFE6D3"/>
<path fill-rule="evenodd" clip-rule="evenodd" d="M61.0674 12.0787H49.8956C44.3097 12.0787 36.1054 20.8104 37.5019 27.1072L39.3348 35.3351C40.7312 41.3801 46.9281 46.3336 53.3868 46.6695C54.696 46.7534 56.4416 46.7534 57.7508 46.5015C63.2494 45.494 67.7006 40.4566 67.7879 35.2512L67.9625 28.0308V27.0233L68.137 18.7114C68.2243 15.1012 64.995 12.0787 61.0674 12.0787Z" fill="#FFE6D3"/>
<path fill-rule="evenodd" clip-rule="evenodd" d="M38.2877 28.4504C38.6368 31.4729 38.8113 32.9002 38.8113 32.9002C35.6693 32.3125 33.9237 30.6333 33.2254 28.9542C31.3926 24.1686 36.8912 23.1611 38.2877 28.4504Z" fill="#15193B" fill-opacity="0.2"/>
<path fill-rule="evenodd" clip-rule="evenodd" d="M59.7584 104.768C57.5764 107.035 56.4417 108.127 56.4417 108.127C55.3071 105.608 53.6488 103.089 51.4668 100.738C53.8233 99.563 55.0453 99.0593 55.0453 99.0593C57.14 100.235 58.7983 102.082 59.7584 104.768Z" fill="white"/>
<path fill-rule="evenodd" clip-rule="evenodd" d="M21.7044 113.752C29.0359 86.3815 25.8066 62.9572 14.1984 60.6064C10.4454 61.7818 7.39058 66.2316 5.20859 74.0397C0.844604 89.32 -5.61409 137.26 9.31073 145.32C23.1882 152.792 49.3721 119.461 59.8456 109.47C58.3619 104.181 56.0053 100.738 52.6014 99.1431C32.0034 108.882 21.7044 113.752 21.7044 113.752Z" fill="#131F5F"/>
<path fill-rule="evenodd" clip-rule="evenodd" d="M14.2857 60.6064C10.4454 61.7818 7.39058 66.2316 5.20859 74.0397C0.844604 89.32 -5.61409 137.26 9.31073 145.32C15.7694 148.762 24.7592 143.557 33.6617 135.917C33.1381 135.749 32.5271 135.497 31.8289 135.329C23.1009 141.794 15.7694 143.809 11.4054 140.786C-4.82857 129.536 7.7397 64.2166 14.2857 60.6064Z" fill="#CC6699" fill-opacity="0.2"/>
<path d="M102.351 65.2241L135.954 81.8478C136.303 82.0158 136.477 82.3516 136.565 82.6874L142.936 112.241L140.579 112.744L134.383 83.6949L101.129 67.2391C99.6452 68.7504 97.2887 69.2541 95.194 68.4146L86.9897 65.0562C84.284 63.9648 83.0621 60.9423 84.1967 58.3396C85.3314 55.7369 88.4734 54.5615 91.1791 55.6529L99.3834 59.0112C101.914 60.1027 103.136 62.7894 102.351 65.2241Z" fill="#8A7777"/>
<path fill-rule="evenodd" clip-rule="evenodd" d="M47.9756 66.2316C46.3173 68.8343 43.437 70.7653 39.7713 72.2766C34.7963 66.2316 31.1306 60.0187 28.6868 53.6379C28.6868 53.6379 30.6942 52.4625 34.6218 50.1956C40.2077 59.1791 44.7462 64.6364 47.9756 66.2316Z" fill="white"/>
<path fill-rule="evenodd" clip-rule="evenodd" d="M47.3647 66.3995C49.8086 68.4985 51.2923 70.3455 55.3945 71.6049C59.0602 67.9108 60.7185 61.1941 61.1549 56.0727C61.1549 56.0727 60.0203 55.7368 55.3945 53.8898C52.6015 60.9422 50.0704 65.0562 47.3647 66.3995Z" fill="white"/>
<path fill-rule="evenodd" clip-rule="evenodd" d="M62.3767 101.074L30.3451 126.681V183.185L62.3767 157.578L67.2644 125.17L62.3767 101.074Z" fill="#FFDBB8"/>
<path fill-rule="evenodd" clip-rule="evenodd" d="M62.3767 101.074L30.3451 126.681V183.185L62.3767 157.578L67.2644 125.17L62.3767 101.074Z" fill="#D97856" fill-opacity="0.749"/>
<path fill-rule="evenodd" clip-rule="evenodd" d="M62.3767 101.074H172V157.578H62.3767V101.074Z" fill="#FFDBB8"/>
<path d="M82.1428 123.366C83.5961 124.096 82.3529 126.206 80.9178 125.467C77.693 123.994 73.9417 126.198 73.9417 129.748C73.9417 133.26 77.6254 135.767 80.9178 134.13C82.3873 133.495 83.594 135.581 82.1635 136.231C81.0839 136.756 79.935 137.018 78.717 137.018C74.3798 137.018 71.2426 133.876 71.2426 129.748C71.2426 125.709 74.5229 122.579 78.717 122.579C79.9489 122.579 81.0908 122.841 82.1428 123.366ZM97.8589 133.423C95.2653 138.125 88.1598 138.122 85.5676 133.423C84.3735 131.181 84.3601 128.332 85.5676 126.093C88.1432 121.367 95.2818 121.364 97.8589 126.093C99.0924 128.329 99.0788 131.185 97.8589 133.423ZM95.5128 127.304C93.9474 124.203 89.4862 124.169 87.9138 127.284C87.1793 128.795 87.1793 130.701 87.9138 132.212C89.4833 135.322 93.9268 135.297 95.5128 132.212C96.2682 130.715 96.2811 128.799 95.5128 127.304ZM113.12 124.356L107.992 136.029C107.512 137.015 106.113 137.071 105.646 136.049L100.517 124.336C99.8045 122.949 102.178 121.919 102.822 123.407L106.995 132.959L110.816 123.407C111.483 121.946 113.771 122.879 113.12 124.356ZM118.43 135.584C118.43 137.174 115.834 137.204 115.834 135.584V123.912C115.834 122.316 118.43 122.31 118.43 123.912V135.584ZM128.196 122.68C130.618 122.68 132.706 124.013 133.677 126.173C134.707 128.372 134.695 131.143 133.677 133.343C132.692 135.506 130.626 136.816 128.196 136.816H123.234C122.513 136.816 121.967 136.286 121.967 135.584V123.912C121.967 123.224 122.525 122.68 123.234 122.68H128.196ZM127.988 134.494C129.234 134.494 130.168 134.05 130.791 133.161C132.091 131.278 132.109 128.224 130.77 126.355C130.148 125.453 129.22 125.002 127.988 125.002H124.563V134.494H127.988ZM137.972 131.828C136.33 131.828 136.328 129.425 137.972 129.425H141.584C143.203 129.425 143.235 131.828 141.584 131.828H137.972ZM150.315 123.912V135.584C150.315 137.19 147.616 137.211 147.616 135.584V126.012L146.328 126.779C144.991 127.56 143.604 125.489 145.062 124.679L148.197 122.861C149.091 122.401 150.315 122.831 150.315 123.912ZM157.961 122.417C160.967 122.417 162.84 125.232 162.84 127.93C162.84 131.82 160.571 135.649 156.57 136.756C154.9 137.162 154.179 134.935 155.947 134.433C157.734 133.937 159.316 132.611 159.996 130.919C159.304 131.498 158.515 131.788 157.629 131.788C151.982 131.788 151.923 122.417 157.961 122.417ZM157.961 129.566C160.922 129.566 161.062 124.639 157.961 124.639C154.905 124.639 154.905 129.566 157.961 129.566Z" fill="#181348"/>
</svg>
